<svg width="349" height="248" viewBox="0 0 349 248" fill="none" xmlns="http://www.w3.org/2000/svg">
<path d="M3.04819 201.48V46.5202H22.3075V201.48H3.04819ZM33.376 134.404V116.916H53.5208C69.1643 116.621 77.0599 107.914 77.2075 90.7944C76.9123 73.2323 67.9837 64.3774 50.4216 64.2298H33.376V46.5202H53.9635C75.3627 47.2581 88.5712 56.1867 93.5889 73.306C95.0647 78.1762 95.8026 83.4891 95.8026 89.2448C95.655 106.364 90.5635 118.392 80.528 125.328C89.0877 129.903 94.253 138.242 96.024 150.343C96.1716 151.376 96.3192 152.409 96.4667 153.442L100.23 201.48H82.0776L78.7571 162.076C77.5764 149.384 74.3296 141.267 69.0167 137.725C65.4748 135.364 60.6784 134.257 54.6276 134.404H33.376Z" fill="#A966FF"/>
<path d="M121.924 201.135V80.0456H123.695L141.184 108.381V201.135H121.924ZM121.924 58.5726L100.23 2L138.527 46.1758L220.434 177.449L249.655 246L210.916 201.135L121.924 58.5726ZM201.175 127.198V46.1758H220.434V155.533H218.664L201.175 127.198Z" fill="#6826BD"/>
<path d="M249.655 158.978V85.4831C250.246 76.4807 254.009 67.921 260.945 59.8041C269.653 50.2113 280.5 45.415 293.487 45.415V64.4529C284.632 64.6005 277.843 68.4376 273.121 75.9642C270.464 80.244 269.136 84.5976 269.136 89.0251V158.978C269.136 169.014 274.301 176.393 284.632 181.115C288.174 182.739 291.126 183.55 293.487 183.55V202.588C284.632 202.588 275.925 199.489 267.365 193.291C255.706 184.731 249.803 173.294 249.655 158.978ZM304.334 202.588V183.55C308.761 183.55 313.558 181.042 318.723 176.024C323.741 170.859 326.324 165.324 326.471 159.421V141.269H304.334V123.338H345.952V162.52C345.952 171.523 341.377 180.451 332.227 189.306C322.929 198.013 313.632 202.441 304.334 202.588ZM304.334 64.4529V45.415C315.55 45.2674 325.586 49.99 334.441 59.5827C342.115 68.1424 345.952 77.3662 345.952 87.2541L327.135 94.1166C327.135 93.969 327.135 93.7476 327.135 93.4525C327.135 93.1573 327.135 92.8622 327.135 92.567C327.135 92.1243 327.061 91.6815 326.914 91.2388C326.914 90.796 326.914 90.3533 326.914 89.9105C326.914 89.4678 326.914 89.0988 326.914 88.8037V88.3609C326.176 78.0303 321.306 70.7251 312.303 66.4452C309.499 65.2646 306.843 64.6005 304.334 64.4529Z" fill="#A966FF"/>
</svg>
