<svg width="436" height="310" viewBox="0 0 436 310" fill="none" xmlns="http://www.w3.org/2000/svg">
<path d="M0.171875 253.438V56.5625H24.6406V253.438H0.171875ZM38.7031 168.219V146H64.2969C84.1719 145.625 94.2031 134.562 94.3906 112.812C94.0156 90.5 82.6719 79.25 60.3594 79.0625H38.7031V56.5625H64.8594C92.0469 57.5 108.828 68.8437 115.203 90.5937C117.078 96.7812 118.016 103.531 118.016 110.844C117.828 132.594 111.359 147.875 98.6094 156.687C109.484 162.5 116.047 173.094 118.297 188.469C118.484 189.781 118.672 191.094 118.859 192.406L123.641 253.438H100.578L96.3594 203.375C94.8594 187.25 90.7344 176.937 83.9844 172.437C79.4844 169.437 73.3906 168.031 65.7031 168.219H38.7031Z" fill="#7F2DE7"/>
<path d="M151.203 253V99.1562H153.453L175.672 135.156V253H151.203ZM151.203 71.875L123.641 0L172.297 56.125L276.359 222.906L313.484 310L264.266 253L151.203 71.875ZM251.891 159.062V56.125H276.359V195.062H274.109L251.891 159.062Z" fill="#6826BD"/>
<path d="M313.484 199.44V106.065C314.234 94.6271 319.016 83.7521 327.828 73.4396C338.891 61.2521 352.672 55.1584 369.172 55.1584V79.3459C357.922 79.5334 349.297 84.4084 343.297 93.9709C339.922 99.4084 338.234 104.94 338.234 110.565V199.44C338.234 212.19 344.797 221.565 357.922 227.565C362.422 229.627 366.172 230.658 369.172 230.658V254.846C357.922 254.846 346.859 250.908 335.984 243.033C321.172 232.158 313.672 217.627 313.484 199.44ZM382.953 254.846V230.658C388.578 230.658 394.672 227.471 401.234 221.096C407.609 214.533 410.891 207.502 411.078 200.002V176.94H382.953V154.158H435.828V203.94C435.828 215.377 430.016 226.721 418.391 237.971C406.578 249.033 394.766 254.658 382.953 254.846ZM382.953 79.3459V55.1584C397.203 54.9709 409.953 60.9709 421.203 73.1584C430.953 84.0334 435.828 95.7521 435.828 108.315L411.922 117.033C411.922 116.846 411.922 116.565 411.922 116.19C411.922 115.815 411.922 115.44 411.922 115.065C411.922 114.502 411.828 113.94 411.641 113.377C411.641 112.815 411.641 112.252 411.641 111.69C411.641 111.127 411.641 110.658 411.641 110.283V109.721C410.703 96.5959 404.516 87.3146 393.078 81.8771C389.516 80.3771 386.141 79.5334 382.953 79.3459Z" fill="#7F2DE7"/>
</svg>
