<svg width="414" height="310" viewBox="0 0 414 310" fill="none" xmlns="http://www.w3.org/2000/svg">
<path d="M0.5625 253V56.125H25.0312V253H0.5625ZM39.0938 167.781V145.562H64.6875C84.5625 145.188 94.5938 134.125 94.7812 112.375C94.4062 90.0625 83.0625 78.8125 60.75 78.625H39.0938V56.125H65.25C92.4375 57.0625 109.219 68.4062 115.594 90.1562C117.469 96.3438 118.406 103.094 118.406 110.406C118.219 132.156 111.75 147.438 99 156.25C109.875 162.062 116.438 172.656 118.688 188.031C118.875 189.344 119.062 190.656 119.25 191.969L124.031 253H100.969L96.75 202.938C95.25 186.812 91.125 176.5 84.375 172C79.875 169 73.7812 167.594 66.0938 167.781H39.0938Z" fill="url(#paint0_linear_211:9)"/>
<path d="M143.156 253V99.1562H145.406L167.625 135.156V253H143.156ZM143.156 71.875L115.594 0L164.25 56.125L268.312 222.906L305.438 310L256.219 253L143.156 71.875ZM243.844 159.062V56.125H268.312V195.062H266.062L243.844 159.062Z" fill="url(#paint1_linear_211:9)"/>
<path d="M291.094 199V105.625C291.844 94.1875 296.625 83.3125 305.438 73C316.5 60.8125 330.281 54.7187 346.781 54.7187V78.9062C335.531 79.0938 326.906 83.9688 320.906 93.5312C317.531 98.9688 315.844 104.5 315.844 110.125V199C315.844 211.75 322.406 221.125 335.531 227.125C340.031 229.188 343.781 230.219 346.781 230.219V254.406C335.531 254.406 324.469 250.469 313.594 242.594C298.781 231.719 291.281 217.188 291.094 199ZM360.562 254.406V230.219C366.188 230.219 372.281 227.031 378.844 220.656C385.219 214.094 388.5 207.062 388.688 199.562V176.5H360.562V153.719H413.438V203.5C413.438 214.938 407.625 226.281 396 237.531C384.188 248.594 372.375 254.219 360.562 254.406ZM360.562 78.9062V54.7187C374.812 54.5312 387.562 60.5312 398.812 72.7188C408.562 83.5938 413.438 95.3125 413.438 107.875L389.531 116.594C389.531 116.406 389.531 116.125 389.531 115.75C389.531 115.375 389.531 115 389.531 114.625C389.531 114.062 389.438 113.5 389.25 112.938C389.25 112.375 389.25 111.812 389.25 111.25C389.25 110.688 389.25 110.219 389.25 109.844V109.281C388.312 96.1562 382.125 86.875 370.688 81.4375C367.125 79.9375 363.75 79.0938 360.562 78.9062Z" fill="url(#paint2_linear_211:9)"/>
<defs>
<linearGradient id="paint0_linear_211:9" x1="624" y1="171.5" x2="-289.5" y2="-39" gradientUnits="userSpaceOnUse">
<stop offset="0.385417" stop-color="#6C55F6"/>
<stop offset="1" stop-color="#263EBD"/>
</linearGradient>
<linearGradient id="paint1_linear_211:9" x1="624" y1="171.5" x2="-289.5" y2="-39" gradientUnits="userSpaceOnUse">
<stop offset="0.385417" stop-color="#6C55F6"/>
<stop offset="1" stop-color="#263EBD"/>
</linearGradient>
<linearGradient id="paint2_linear_211:9" x1="624" y1="171.5" x2="-289.5" y2="-39" gradientUnits="userSpaceOnUse">
<stop offset="0.385417" stop-color="#6C55F6"/>
<stop offset="1" stop-color="#263EBD"/>
</linearGradient>
</defs>
</svg>
