<svg width="414" height="310" viewBox="0 0 414 310" fill="none" xmlns="http://www.w3.org/2000/svg">
<style>
    path {
        fill: var(--gui-color-fg-default);
    }
</style>
<path d="M0.8125 253V56.125H25.2812V253H0.8125ZM39.3438 167.781V145.562H64.9375C84.8125 145.188 94.8438 134.125 95.0312 112.375C94.6562 90.0625 83.3125 78.8125 61 78.625H39.3438V56.125H65.5C92.6875 57.0625 109.469 68.4062 115.844 90.1562C117.719 96.3438 118.656 103.094 118.656 110.406C118.469 132.156 112 147.438 99.25 156.25C110.125 162.062 116.688 172.656 118.938 188.031C119.125 189.344 119.312 190.656 119.5 191.969L124.281 253H101.219L97 202.938C95.5 186.812 91.375 176.5 84.625 172C80.125 169 74.0312 167.594 66.3438 167.781H39.3438Z"/>
<path d="M143.406 253V99.1562H145.656L167.875 135.156V253H143.406ZM143.406 71.875L115.844 0L164.5 56.125L268.562 222.906L305.688 310L256.469 253L143.406 71.875ZM244.094 159.062V56.125H268.562V195.062H266.312L244.094 159.062Z"/>
<path d="M291.344 199V105.625C292.094 94.1875 296.875 83.3125 305.688 73C316.75 60.8125 330.531 54.7187 347.031 54.7187V78.9062C335.781 79.0938 327.156 83.9688 321.156 93.5312C317.781 98.9688 316.094 104.5 316.094 110.125V199C316.094 211.75 322.656 221.125 335.781 227.125C340.281 229.188 344.031 230.219 347.031 230.219V254.406C335.781 254.406 324.719 250.469 313.844 242.594C299.031 231.719 291.531 217.188 291.344 199ZM360.812 254.406V230.219C366.438 230.219 372.531 227.031 379.094 220.656C385.469 214.094 388.75 207.062 388.938 199.562V176.5H360.812V153.719H413.688V203.5C413.688 214.938 407.875 226.281 396.25 237.531C384.438 248.594 372.625 254.219 360.812 254.406ZM360.812 78.9062V54.7187C375.062 54.5312 387.812 60.5312 399.062 72.7188C408.812 83.5938 413.688 95.3125 413.688 107.875L389.781 116.594C389.781 116.406 389.781 116.125 389.781 115.75C389.781 115.375 389.781 115 389.781 114.625C389.781 114.062 389.688 113.5 389.5 112.938C389.5 112.375 389.5 111.812 389.5 111.25C389.5 110.688 389.5 110.219 389.5 109.844V109.281C388.562 96.1562 382.375 86.875 370.938 81.4375C367.375 79.9375 364 79.0938 360.812 78.9062Z"/>
</svg>
